<svg id="Layer_1" data-name="Layer 1" xmlns="http://www.w3.org/2000/svg" viewBox="0 0 24 24"><title>recipe-placeholder</title><path d="M1.29,10.22a.43.43,0,0,0,.33.12A.75.75,0,0,0,2,10.21l.45-.37L3,10a.55.55,0,0,0,.61-.21.68.68,0,0,0,.09-.57l-.22-.53.3-.48a.61.61,0,0,0,0-.65.66.66,0,0,0-.53-.28h0l-.58.05L2.35,6.9a.55.55,0,0,0-.61-.21.5.5,0,0,0-.42.45l-.14.58-.51.21a.54.54,0,0,0-.4.55A.63.63,0,0,0,.55,9l.5.3,0,.45A.56.56,0,0,0,1.29,10.22Z"/><path d="M23.34,7.17,22.78,7l-.17-.57A.57.57,0,0,0,22.17,6L22,6a.56.56,0,0,0-.47.25l-.36.46-.58,0a.58.58,0,0,0-.5.27c-.09.12-.15.33,0,.67l.35.47-.21.6a.6.6,0,0,0,.14.57.68.68,0,0,0,.45.19l.14,0,.56-.17.51.38a.67.67,0,0,0,.31.09.37.37,0,0,0,.28-.08A.6.6,0,0,0,23,9.13V8.56l.48-.33a.54.54,0,0,0,.25-.54A.57.57,0,0,0,23.34,7.17Z"/><path d="M3.48,3.48h.06a1.31,1.31,0,0,0,.82-.3,1.27,1.27,0,0,0,.15-1.79,1.32,1.32,0,0,0-1.79-.11,1.13,1.13,0,0,0-.42.84,1.24,1.24,0,0,0,.3.94A1.14,1.14,0,0,0,3.48,3.48ZM3.12,1.74a.68.68,0,0,1,.44-.16.65.65,0,0,1,0,1.29H3.48a.55.55,0,0,1-.42-.21.65.65,0,0,1-.15-.5A.54.54,0,0,1,3.12,1.74Z"/><path d="M9.36,6.65a.3.3,0,0,0,.3.3.3.3,0,0,0,.31-.3A9.13,9.13,0,0,0,6.79.83a.29.29,0,0,0-.43,0,.3.3,0,0,0,0,.43A8.72,8.72,0,0,1,9.36,6.65Z"/><path d="M7,7.87A.29.29,0,0,0,7.29,8a.26.26,0,0,0,.15,0,.31.31,0,0,0,.12-.42A4.06,4.06,0,0,0,4.45,5.49h0a.32.32,0,0,0-.31.31.31.31,0,0,0,.31.31A3.52,3.52,0,0,1,7,7.87Z"/><path d="M13.48,6.58a.3.3,0,0,0,.31-.3,8.67,8.67,0,0,1,3-5.36.31.31,0,0,0,0-.44.3.3,0,0,0-.43,0,9.07,9.07,0,0,0-3.18,5.82A.29.29,0,0,0,13.48,6.58Z"/><path d="M15.74,6.62a.3.3,0,0,0,.12.42.23.23,0,0,0,.14,0,.3.3,0,0,0,.27-.16,3.5,3.5,0,0,1,2.59-1.76.32.32,0,0,0,.3-.32.31.31,0,0,0-.31-.3h0A4,4,0,0,0,15.74,6.62Z"/><path d="M21.13,3.85h.05a1.29,1.29,0,0,0,.82-.3,1.13,1.13,0,0,0,.42-.85,1.22,1.22,0,0,0-.3-.94,1.13,1.13,0,0,0-.84-.41,1.18,1.18,0,0,0-.92.3,1.22,1.22,0,0,0-.42.84,1.27,1.27,0,0,0,.3.94A1.18,1.18,0,0,0,21.13,3.85Zm-.37-1.74A.63.63,0,0,1,21.15,2h.09a.56.56,0,0,1,.42.2.69.69,0,0,1,.15.51.54.54,0,0,1-.2.41.69.69,0,0,1-.43.16h-.05A.57.57,0,0,1,20.71,3a.71.71,0,0,1-.16-.49A.66.66,0,0,1,20.76,2.11Z"/><path d="M18.14,7.59a1.24,1.24,0,0,0-.94.29,1.16,1.16,0,0,0-.42.85,1.3,1.3,0,0,0,.3.94,1.24,1.24,0,0,0,1,.45,1.31,1.31,0,0,0,.82-.3A1.29,1.29,0,0,0,19,8,1.27,1.27,0,0,0,18.14,7.59Zm.34,1.76a.68.68,0,0,1-.93-.08.65.65,0,0,1-.15-.51.54.54,0,0,1,.2-.41.67.67,0,0,1,.45-.16h0a.65.65,0,0,1,.45.24A.68.68,0,0,1,18.48,9.35Z"/><path d="M22.32,11.48a1.21,1.21,0,0,0-.94.3,1.15,1.15,0,0,0-.42.85,1.26,1.26,0,0,0,.3.94,1.13,1.13,0,0,0,.88.41h.06a1.26,1.26,0,0,0,.82-.3,1.18,1.18,0,0,0,.42-.84,1.27,1.27,0,0,0-.3-.94A1.26,1.26,0,0,0,22.32,11.48Zm.31,1.74a.75.75,0,0,1-.43.15h-.06a.54.54,0,0,1-.41-.2.62.62,0,0,1-.15-.51.56.56,0,0,1,.2-.42.68.68,0,0,1,.45-.15h0a.59.59,0,0,1,.42.21.62.62,0,0,1,.16.49A.67.67,0,0,1,22.63,13.22Z"/><path d="M10.74,5.91a.31.31,0,0,0,.31.31.3.3,0,0,0,.3-.31c0-.16.19-.27.59-.43s.44-.18.51-.33a.3.3,0,0,0,0-.35c-.06-.07-.14-.09-.3-.16l-.21-.09c-.36-.13-.54-.26-.54-.41s.19-.28.59-.44.44-.18.51-.33A.29.29,0,0,0,12.39,3a.75.75,0,0,0-.29-.15l-.21-.1c-.34-.12-.54-.23-.54-.41s.18-.27.58-.44.45-.18.52-.33a.29.29,0,0,0-.06-.35.75.75,0,0,0-.29-.15L11.89,1c-.34-.13-.54-.23-.54-.42a.3.3,0,0,0-.3-.31.31.31,0,0,0-.31.31,1,1,0,0,0,.68.9,1,1,0,0,0-.68.88,1,1,0,0,0,.68.89,1,1,0,0,0-.68.89,1,1,0,0,0,.69.89A1,1,0,0,0,10.74,5.91Z"/><path d="M2.37,12.16a.2.2,0,0,0-.2-.2H2v-.28a.2.2,0,0,0-.21-.2.2.2,0,0,0-.2.2V12h-.2a.2.2,0,0,0-.2.2.2.2,0,0,0,.2.21h.17s0,0,0,.06h0v.22a.2.2,0,0,0,.2.2.2.2,0,0,0,.21-.2V12.4a0,0,0,0,0,0,0h.19A.2.2,0,0,0,2.37,12.16Z"/><path d="M5.7,10.19A.21.21,0,0,0,5.91,10V9.72h.2a.2.2,0,0,0,.2-.21.2.2,0,0,0-.2-.2h-.2V9a.2.2,0,0,0-.21-.2.2.2,0,0,0-.2.2v.27H5.3a.2.2,0,0,0-.2.2.2.2,0,0,0,.2.21h.2V10A.2.2,0,0,0,5.7,10.19Z"/><path d="M7.77,5.61V5.33H8a.2.2,0,0,0,.2-.2A.2.2,0,0,0,8,4.92h-.2V4.65a.2.2,0,0,0-.2-.21.21.21,0,0,0-.21.21v.27h-.2a.2.2,0,0,0-.2.21.2.2,0,0,0,.2.2h.2v.28a.2.2,0,0,0,.21.2A.2.2,0,0,0,7.77,5.61Z"/><path d="M1.36,5h.2v.26a.21.21,0,0,0,.21.21A.2.2,0,0,0,2,5.26V5h.2a.21.21,0,0,0,.2-.21.2.2,0,0,0-.2-.2H2V4.3a.2.2,0,0,0-.21-.2.2.2,0,0,0-.2.2v.28h-.2a.2.2,0,0,0-.2.2A.21.21,0,0,0,1.36,5Z"/><path d="M17.63,3.06h.2v.28a.2.2,0,0,0,.21.2.2.2,0,0,0,.2-.2V3.06h.2a.2.2,0,0,0,.2-.2.2.2,0,0,0-.2-.21h-.2V2.38a.2.2,0,0,0-.2-.21.21.21,0,0,0-.21.21v.27h-.2a.21.21,0,0,0-.2.21A.2.2,0,0,0,17.63,3.06Z"/><path d="M19.88,11h.2v.28a.2.2,0,0,0,.2.2.2.2,0,0,0,.21-.2V11h.2a.2.2,0,0,0,.2-.2.2.2,0,0,0-.2-.21h-.2v-.27a.21.21,0,0,0-.21-.21.2.2,0,0,0-.2.21v.27h-.2a.21.21,0,0,0-.21.21A.2.2,0,0,0,19.88,11Z"/><path d="M22.92,20a.74.74,0,0,0-.66-.4h-.43a10.06,10.06,0,0,0-8.11-9.47,1.1,1.1,0,0,0,0-.18,1.93,1.93,0,0,0-3.86,0c0,.06,0,.12,0,.18a10.07,10.07,0,0,0-8.11,9.47h0a.74.74,0,0,0-.66.4.76.76,0,0,0,.06.78L2,22A2.58,2.58,0,0,0,4.1,23.05H19.9A2.57,2.57,0,0,0,22,22l.87-1.21A.76.76,0,0,0,22.92,20ZM10.65,10V9.93a1.16,1.16,0,0,1,2.32,0A.2.2,0,0,1,13,10h-.05l-.4,0h-.15l-.55,0-.55,0h-.15c-.14,0-.27,0-.4,0Zm-.23.81a4.53,4.53,0,0,1,.62-.07h.13a9,9,0,0,1,1.27,0h.13a4.2,4.2,0,0,1,.62.07,9.27,9.27,0,0,1,7.87,8.77H2.55A9.28,9.28,0,0,1,10.42,10.81ZM21.36,21.53a1.8,1.8,0,0,1-1.46.75H4.1a1.8,1.8,0,0,1-1.46-.75L1.8,20.35H22.2Z"/><path d="M11.8,11.47a8.38,8.38,0,0,0-1.87.21.39.39,0,0,0,.08.77h.08a7.6,7.6,0,0,1,1.71-.19h0a.39.39,0,0,0,.38-.39A.38.38,0,0,0,11.8,11.47Z"/><path d="M7.62,12.59a8.49,8.49,0,0,0-3.91,5.76A.39.39,0,0,0,4,18.8h.07a.39.39,0,0,0,.38-.32A7.69,7.69,0,0,1,8,13.26a.38.38,0,0,0,.14-.53A.39.39,0,0,0,7.62,12.59Z"/></svg>